<?xml version="1.0" encoding="UTF-8" standalone="no"?>
<svg
   onload="init(evt)"
   viewBox="0 0 597.475 587.232"
   version="1.1"
   id="svg2"
   sodipodi:docname="logo-planck-full-2024.svg"
   inkscape:version="1.3.2 (091e20e, 2023-11-25)"
   xmlns:inkscape="http://www.inkscape.org/namespaces/inkscape"
   xmlns:sodipodi="http://sodipodi.sourceforge.net/DTD/sodipodi-0.dtd"
   xmlns:xlink="http://www.w3.org/1999/xlink"
   xmlns="http://www.w3.org/2000/svg"
   xmlns:svg="http://www.w3.org/2000/svg">
  <defs
     id="defs2">
    <rect
       x="101.25811"
       y="81.006484"
       width="277.73652"
       height="376.10153"
       id="rect3" />
    <linearGradient
       id="linearGradient2"
       inkscape:collect="always">
      <stop
         style="stop-color:#040404;stop-opacity:1;"
         offset="0"
         id="stop2" />
      <stop
         style="stop-color:#040404;stop-opacity:0;"
         offset="1"
         id="stop3" />
    </linearGradient>
    <rect
       x="94.025383"
       y="44.842875"
       width="237.23327"
       height="446.98221"
       id="rect2" />
    <linearGradient
       inkscape:collect="always"
       xlink:href="#linearGradient2"
       id="linearGradient3" />
  </defs>
  <sodipodi:namedview
     id="namedview2"
     pagecolor="#ffffff"
     bordercolor="#000000"
     borderopacity="0.25"
     inkscape:showpageshadow="2"
     inkscape:pageopacity="0.0"
     inkscape:pagecheckerboard="0"
     inkscape:deskcolor="#d1d1d1"
     inkscape:zoom="0.94591812"
     inkscape:cx="216.19207"
     inkscape:cy="274.33664"
     inkscape:window-width="1288"
     inkscape:window-height="914"
     inkscape:window-x="0"
     inkscape:window-y="25"
     inkscape:window-maximized="0"
     inkscape:current-layer="svg2" />
  <g
     fill="#010101"
     transform="translate(-7.631 -102.54)"
     id="g2">
    <ellipse
       cx="42.792"
       cy="243.16"
       rx="35.161"
       ry="30.644"
       id="ellipse1" />
    <path
       id="ellipse2"
       d="M 42.791156 469.93453 A 35.160999 30.646 0 0 0 7.631 500.57906 A 35.160999 30.646 0 0 0 42.791156 531.22555 A 35.160999 30.646 0 0 0 49.144672 530.65914 C 50.050712 531.7696 50.507953 533.47846 50.507953 535.79586 C 50.507953 538.26722 50.173682 540.86254 49.506 543.58102 C 49.060885 546.2995 47.837175 549.14079 45.834125 552.10641 C 44.053644 555.31916 41.271948 558.65626 37.488422 562.11617 C 33.927446 565.57605 29.03067 569.15915 22.798969 572.86617 L 30.478656 586.58297 C 46.503037 577.93323 58.632584 568.04583 66.867328 556.92477 C 75.324642 545.80368 79.552875 531.71731 79.552875 514.665 C 79.552875 508.98939 79.006977 503.94689 77.923969 499.52438 A 35.160999 30.646 0 0 0 42.791156 469.93453 z " />
    <path
       d="M563.6 203.4c-26.766-26.769-63.463-41.513-103.34-41.513-46.388 0-93.007 20.025-127.92 54.942-1.501 1.5-2.819 3.142-4.269 4.686v-61.852c10.845-1.694 21.562-4.269 32.045-7.822 13.253-4.491 20.343-18.867 15.858-32.112-4.483-13.24-18.878-20.337-32.115-15.849a140.936 140.936 0 0 1-45.377 7.499 142.57 142.57 0 0 1-38.18-5.193c-13.485-3.75-27.429 4.135-31.19 17.606-3.741 13.477 4.139 27.435 17.606 31.18 10.054 2.797 20.342 4.664 30.709 5.799v183.28c0 .237-.035.468-.035.699 0 .268.035.531.035.799v287.08a193.561 193.561 0 0 0-32.047 7.825c-13.253 4.502-20.343 18.879-15.84 32.114 4.484 13.256 18.858 20.34 32.111 15.841a140.899 140.899 0 0 1 45.367-7.5c12.971 0 25.813 1.75 38.177 5.194 13.469 3.761 27.428-4.119 31.188-17.586 3.761-13.471-4.119-27.43-17.588-31.189-10.055-2.788-20.325-4.663-30.726-5.805v-175.26c61.01 51.02 157.94 42.563 222.09-21.61 34.914-34.906 54.944-81.529 54.944-127.91 0-39.875-14.735-76.578-41.508-103.35zm-49.238 195.44c-47.722 47.713-119.33 53.746-159.65 13.435-16.998-17.004-26.427-40.634-26.64-66.616v-1.667c.231-32.807 14.77-66.065 40.073-91.36 25.485-25.488 59.063-40.107 92.116-40.107 26.34 0 50.324 9.474 67.535 26.674 17.193 17.207 26.671 41.195 26.671 67.542.001 33.052-14.619 66.619-40.105 92.099z"
       id="path2" />
  </g>
  <text
     xml:space="preserve"
     id="text2"
     style="font-style:normal;font-variant:normal;font-weight:normal;font-stretch:normal;font-family:Superclarendon;-inkscape-font-specification:Superclarendon;white-space:pre;shape-inside:url(#rect2);display:inline;fill:#040404;fill-opacity:1" />
</svg>
